External Loads File
version=1
nRows=53
nColumns=13
Range=5.000000e-03-10 seconds
endheader
time 	forceRightX 	forceRightY 	forceRightZ 	pointRightX 	pointRightY 	pointRightZ 	forceLeftX 	forceLeftY 	forceLeftZ 	pointLeftX 	pointLeftY 	pointLeftZ 		
2.505000 179.413668 402.391476 -0.000000 0.302174 0.161783 -0.102626 -79.018393 77.326241 -0.000000 0.185172 0.487721 -0.344380
2.510000 181.972186 367.761485 -0.000000 0.299145 0.160589 -0.102571 -81.399923 100.225193 -0.000000 0.187783 0.489571 -0.344440
2.515000 183.353230 333.159781 -0.000000 0.296123 0.159358 -0.102576 -83.909477 124.514760 -0.000000 0.190336 0.491283 -0.344533
2.520000 183.815950 298.640798 -0.000000 0.293037 0.158301 -0.102701 -86.418153 149.946323 -0.000000 0.192874 0.493066 -0.344562
2.525000 183.523628 264.242137 -0.000000 0.289987 0.157261 -0.102753 -88.848580 176.183424 -0.000000 0.195414 0.494716 -0.344683
2.530000 182.888050 229.779078 -0.000000 0.286803 0.156272 -0.102874 -90.995874 202.904962 -0.000000 0.197889 0.496496 -0.344725
2.535000 182.042213 195.213103 -0.000000 0.283573 0.155403 -0.103029 -92.855535 229.659746 -0.000000 0.200284 0.498022 -0.344749
2.540000 181.373603 160.250183 -0.000000 0.280159 0.154651 -0.103329 -94.157448 256.138586 -0.000000 0.202718 0.499466 -0.344690
2.545000 180.927109 124.857306 -0.000000 0.276657 0.153991 -0.103559 -94.911993 281.997188 -0.000000 0.205122 0.501170 -0.344620
2.550000 180.600082 89.248971 -0.000000 0.273268 0.153471 -0.103484 -95.451788 306.893681 -0.000000 0.207495 0.502418 -0.344599
2.555000 180.429140 53.465397 -0.000000 0.269828 0.152891 -0.103386 -95.699389 330.696843 -0.000000 0.209817 0.503538 -0.344603
2.560000 180.328236 17.875749 -0.000000 0.266399 0.152496 -0.103460 -95.997761 353.206908 -0.000000 0.211993 0.504528 -0.344724
2.565000 180.347045 -17.350478 -0.000000 0.262953 0.152204 -0.103614 -96.259864 374.447433 -0.000000 0.214256 0.505613 -0.344827
2.570000 180.542793 -51.885107 -0.000000 0.259382 0.151970 -0.103837 -96.644235 394.463473 -0.000000 0.216592 0.506308 -0.344981
2.575000 181.058179 -85.255823 -0.000000 0.255802 0.151966 -0.104076 -97.536312 413.262254 -0.000000 0.218905 0.506781 -0.345067
2.580000 182.062014 -117.006046 -0.000000 0.252189 0.152019 -0.104465 -99.125686 430.843845 -0.000000 0.221114 0.506940 -0.345295
2.585000 183.538678 -146.831874 -0.000000 0.248404 0.152229 -0.104811 -101.016230 447.303951 -0.000000 0.223445 0.507470 -0.345495
2.590000 185.659632 -174.029425 -0.000000 0.244574 0.152503 -0.105123 -103.637807 462.590411 -0.000000 0.225798 0.507604 -0.345700
2.595000 188.528027 -198.032656 -0.000000 0.240751 0.152802 -0.105366 -107.176908 476.776290 -0.000000 0.228144 0.507595 -0.345927
2.600000 192.090349 -218.498867 -0.000000 0.236865 0.153215 -0.105532 -111.553183 490.019881 -0.000000 0.230547 0.507432 -0.346139
2.605000 196.290970 -235.221597 -0.000000 0.232938 0.153583 -0.105683 -116.830404 502.434188 -0.000000 0.232999 0.507381 -0.346335
2.610000 201.050337 -248.237257 -0.000000 0.228991 0.154058 -0.105847 -123.068531 514.104659 -0.000000 0.235472 0.507045 -0.346397
2.615000 206.172121 -257.943445 -0.000000 0.225013 0.154680 -0.105891 -130.056260 525.146946 -0.000000 0.238041 0.506667 -0.346526
2.620000 211.532350 -264.927632 -0.000000 0.220992 0.155283 -0.105986 -137.690978 535.613615 -0.000000 0.240689 0.506316 -0.346566
2.625000 217.036975 -269.925819 -0.000000 0.217006 0.156004 -0.106046 -145.946535 545.499982 -0.000000 0.243386 0.505551 -0.346568
2.630000 222.479089 -273.850181 -0.000000 0.213016 0.156794 -0.106014 -154.654893 554.808319 -0.000000 0.246147 0.504905 -0.346584
2.635000 227.664992 -277.605840 -0.000000 0.209090 0.157682 -0.106015 -163.783347 563.482721 -0.000000 0.248932 0.503942 -0.346754
2.640000 232.226964 -282.137910 -0.000000 0.205227 0.158606 -0.105931 -173.047964 571.550213 -0.000000 0.251815 0.502521 -0.346746
2.645000 235.974177 -288.063048 -0.000000 0.201397 0.159622 -0.105896 -182.580680 578.976725 -0.000000 0.254735 0.501526 -0.346718
2.650000 238.530579 -295.952786 -0.000000 0.197628 0.160934 -0.105819 -192.109409 585.920237 -0.000000 0.257767 0.500509 -0.346658
2.655000 239.915939 -305.871148 -0.000000 0.194019 0.162048 -0.105750 -202.023584 592.363997 -0.000000 0.260817 0.499327 -0.346628
2.660000 239.917733 -317.897441 -0.000000 0.190381 0.163110 -0.105642 -212.050250 598.541236 -0.000000 0.263857 0.498010 -0.346588
2.665000 238.561901 -331.767744 -0.000000 0.186860 0.164407 -0.105565 -222.181864 604.656399 -0.000000 0.266989 0.496586 -0.346490
2.670000 235.847690 -347.077410 -0.000000 0.183333 0.166021 -0.105415 -232.221550 611.012748 -0.000000 0.270155 0.494994 -0.346443
2.675000 232.102752 -363.011992 -0.000000 0.179869 0.167676 -0.105368 -242.486668 617.688151 -0.000000 0.273286 0.493303 -0.346321
2.680000 227.380454 -378.795590 -0.000000 0.176440 0.169399 -0.105235 -252.763971 624.893658 -0.000000 0.276403 0.491421 -0.346187
2.685000 221.807212 -393.546333 -0.000000 0.173028 0.171143 -0.105162 -262.922944 632.756203 -0.000000 0.279548 0.489426 -0.346174
2.690000 215.771700 -406.320027 -0.000000 0.169723 0.172997 -0.105034 -273.183605 641.217399 -0.000000 0.282673 0.487467 -0.346180
2.695000 209.081175 -416.661953 -0.000000 0.166351 0.174975 -0.104991 -282.804252 650.593477 -0.000000 0.285852 0.485180 -0.346029
2.700000 202.559847 -423.802934 -0.000000 0.163080 0.176999 -0.104906 -292.636074 660.488455 -0.000000 0.288883 0.482836 -0.346026
2.705000 196.056723 -427.700906 -0.000000 0.159783 0.179154 -0.104830 -302.014124 671.135151 -0.000000 0.291910 0.480316 -0.345966
2.710000 189.828044 -428.307851 -0.000000 0.156523 0.181468 -0.104762 -310.958841 682.433048 -0.000000 0.294965 0.477640 -0.346035
2.715000 184.290443 -425.679339 -0.000000 0.153280 0.183879 -0.104697 -319.819524 694.084035 -0.000000 0.297892 0.474880 -0.346025
2.720000 179.744521 -420.073014 -0.000000 0.150054 0.186347 -0.104618 -328.848106 705.806964 -0.000000 0.300652 0.472194 -0.346118
2.725000 175.443172 -412.305790 -0.000000 0.146629 0.188994 -0.104369 -336.587545 718.104540 -0.000000 0.303509 0.469202 -0.346083
2.730000 172.331882 -402.519270 -0.000000 0.143499 0.191667 -0.104260 -344.545726 730.071008 -0.000000 0.306284 0.466055 -0.346108
2.735000 169.757585 -391.510220 -0.000000 0.140339 0.194509 -0.104266 -351.637925 742.002786 -0.000000 0.309074 0.462726 -0.346224
2.740000 167.966573 -379.619234 -0.000000 0.137325 0.197507 -0.104170 -358.534308 753.390222 -0.000000 0.311725 0.459277 -0.346183
2.745000 166.423264 -367.443560 -0.000000 0.134343 0.200569 -0.104153 -364.513220 764.388043 -0.000000 0.314541 0.455720 -0.346243
2.750000 165.260130 -355.195112 -0.000000 0.131502 0.203757 -0.104124 -370.206041 774.487700 -0.000000 0.317251 0.452063 -0.346341
2.755000 164.081648 -343.240585 -0.000000 0.128680 0.207139 -0.104059 -375.164133 783.711859 -0.000000 0.319867 0.448277 -0.346356
2.760000 162.861504 -331.718442 -0.000000 0.125954 0.210484 -0.104086 -379.675066 791.814266 -0.000000 0.322547 0.444443 -0.346452
2.765000 161.485543 -320.766002 -0.000000 0.123381 0.214000 -0.104104 -383.733406 798.777491 -0.000000 0.325103 0.440475 -0.346583
